<svg xmlns="http://www.w3.org/2000/svg" xml:space="preserve" viewBox="0 0 210 300">
  <path d="M122.06955 174.50046c-1.6309 0-12.65424 1.46924-15.86105 2.11408-16.671789 3.35246-35.354127 10.35366-51.757043 19.39572-3.877164 2.13728-9.699011 5.96552-9.719304 6.39082-.01749.36617 2.211234.0131 6.569108-1.04024 4.012566-.96984 11.100491-3.60035 24.44502-9.07232 4.550551-1.86597 10.304701-4.16929 12.786816-5.11855 2.482115-.94926 6.774194-2.58995 9.537919-3.64577 2.763704-1.05583 5.094644-1.84962 5.180044-1.76423.16065.16063-5.422768 3.35348-11.333156 6.48074-1.861587.98499-3.554171 1.91185-3.761011 2.05982-1.427847 1.02149-13.138997 6.62867-16.359208 7.8326-4.327092 1.61774.622975.6179 9.025805-1.82315 9.634012-2.79871 17.959297-6.32418 27.18129-11.51041 3.80117-2.1377 12.04021-7.62079 13.76815-9.16275l1.27331-1.13636z" style="fill:#008655;fill-opacity:1;stroke-width:.0537104" transform="scale(1.3114839 1.2926943)"/>
  <path d="M17.676957 132.60948c-.526003-.0313-.460643 2.24841-.301273 8.19226.274419 10.2345 1.602898 18.96491 4.579565 30.10152 1.055529 3.94904 3.992789 12.66628 4.823478 14.31541.31256.62053 1.405297 3.24407 2.428276 5.82962 1.022979 2.58553 1.996669 5.03921 2.164209 5.45289.411179 1.01532 1.142749-2.66185 1.720308-8.6496.787339-8.16273.0029-18.90688-1.950268-26.70173-.76456-3.05173-1.620857-5.80356-2.603976-8.6496-.395549-1.14507-.829974-2.2784-1.323433-3.3848-1.343329-3.01195-2.833772-5.96224-4.447791-8.83822-1.327988-2.2172-2.644916-4.23463-3.958414-6.32003-.530159-.84209-.891589-1.33351-1.130681-1.34772z" style="fill:#008655;fill-opacity:1;stroke-width:.0537104" transform="scale(1.3114839 1.2926943)"/>
  <path d="M136.109 123.08448c-.2262-.0836-1.05085.20998-2.63446.82114-.72395.27938-2.33185.88916-3.57291 1.35547-2.86811 1.07764-12.9872 5.61369-16.92351 7.5861-13.921418 6.97575-30.177007 18.6996-39.206396 28.27683-1.499617 1.59059-2.726448 2.96632-2.726448 3.05717 0 .28033.582785.18275.959114-.16071.196499-.17935 1.62626-.76096 3.177584-1.29243 9.539691-3.26816 19.468001-7.65373 26.137936-11.54606 1.86159-1.08636 3.97654-2.31162 4.70049-2.72283 1.85765-1.05518 11.66563-7.74149 12.58631-8.58036.42064-.38326 1.86464-1.59155 3.20911-2.68562 3.98344-3.24151 9.8808-8.84286 13.33665-12.66745.8104-.89687 1.18274-1.35767.95653-1.44125z" style="fill:#008655;fill-opacity:1;stroke-width:.0537104" transform="scale(1.3114839 1.2926943)"/>
  <path d="m32.61403 83.301375.237195 3.196704c.819489 11.037369 5.825388 31.414361 11.964644 48.702451 2.592932 7.30168 6.142239 15.95845 8.943124 21.81263l1.439705 3.0086.02584-1.73581c.02742-1.84908-1.046987-10.26561-2.049487-16.05846-.906601-5.23867-2.966764-13.36793-5.259627-20.75377-1.12372-3.61975-2.327154-7.51249-2.674256-8.65012-.347101-1.13763-1.300787-3.89822-2.11925-6.13502-.818462-2.23681-1.395292-4.15993-1.282093-4.27313 1.132402-1.1324 8.061734 13.52277 11.678357 24.69927 2.555464 7.89718 2.810233 8.79169 4.506185 15.79542 1.884212 7.78117 2.721775 12.69302 3.10472 18.21439.381513 5.50075.931806 3.37759 1.170988-4.51703.286492-9.45634-.451617-15.68813-3.093868-26.12296-2.784901-10.99817-7.549716-21.97188-13.220381-30.44775-2.872885-4.294056-3.585338-5.319903-4.083472-5.877163-.208464-.233209-.63283-.799598-.943095-1.258838-1.289186-1.908228-4.371522-5.597818-6.291089-7.530806z" style="fill:#008655;fill-opacity:1;stroke-width:.0537104" transform="scale(1.3114839 1.2926943)"/>
  <path d="M148.96093 75.967973c-1.73633 0-12.49692 5.030782-19.48666 9.110038-2.57909 1.505179-5.39968 3.146273-6.26784 3.647323-3.60615 2.081298-14.91511 10.203662-18.64382 13.390396-5.973823 5.10554-11.955992 11.19741-14.951026 15.22594-2.417195 3.25131-3.898986 5.608-3.898986 6.19963 0 .44493 3.27737-2.05201 7.470861-5.69165 2.350876-2.04037 4.908496-4.21741 5.683374-4.83794.774889-.62054 3.928307-3.16443 7.007837-5.65289 8.63854-6.98045 14.56581-11.443949 19.65824-14.803746 6.80991-4.492935 6.67648-3.725437-.5824 3.346566-2.6548 2.586467-5.83109 5.54821-7.05848 6.58151-1.22738 1.03329-2.434 2.08926-3.65249 3.13211-2.00411 1.71523-4.08932 3.5601-6.01721 5.14025-2.28307 1.86159-3.51453 2.9789-5.31233 4.41886-.58417.46788-1.78818 1.23844-1.77819 1.37097 0 .18525 1.88064-.66105 4.17959-1.8805 2.29896-1.21946 3.73521-1.87777 4.34341-2.21744 1.73352-.96814 2.99457-1.76508 4.83536-3.0086 5.08829-3.43735 10.58116-7.27861 14.642-10.895978 5.73275-5.238154 7.36841-6.824256 9.3524-9.069214 1.20425-1.362668 2.5598-2.885876 3.01222-3.384806 1.30227-1.436138 6.41512-7.946805 7.136-9.086784.3597-.568819.50737-1.034045.32814-1.034045z" style="fill:#008655;fill-opacity:1;stroke-width:.0537104" transform="scale(1.3114839 1.2926943)"/>
  <path d="m65.465771 41.974699-.219108 1.295528c-.120506.712402-.400669 2.395342-.622701 3.739823-.647521 3.921008-.869835 16.592335-.389123 22.199679 1.00373 11.708232 4.044676 26.741234 7.33857 36.280471 1.955296 5.6626 4.68103 12.89005 5.794478 15.36392l.990638 2.20142.697631-2.57762c.518499-1.91671.749885-4.47288.903304-9.97252.20797-7.45528-.172697-14.531692-1.230415-22.879224-.637079-5.027785-2.542686-15.577458-3.359485-18.598865-.310029-1.146799-.821856-3.058454-1.137915-4.247803-1.462397-5.503038-5.747464-17.15515-7.54786-20.524845Z" style="fill:#008655;fill-opacity:1;stroke-width:.0537104" transform="scale(1.3114839 1.2926943)"/>
  <path d="M147.94808 38.588859c-.18916-.0049-.58865.151266-1.1989.466121-9.01624 4.651879-14.80348 8.723537-20.65042 14.528829-2.71224 2.692935-5.64799 5.827312-6.52363 6.96495-1.46967 1.909396-3.68324 4.322012-9.57513 10.436055-1.24578 1.292769-2.15078 2.350761-2.01073 2.350761.14006 0 1.15083-.532197 2.24586-1.182356 1.09502-.65016 3.59847-2.110885 5.56349-3.246314 6.19984-3.582406 14.71883-11.087529 21.3465-17.456299 2.75507-2.647458 5.90566-6.351423 7.60418-8.577771.69693-.930795 1.77576-2.239725 2.39779-2.908866.84763-.911831 1.11624-1.366993.80099-1.37511z" style="fill:#008655;fill-opacity:1;stroke-width:.0537104" transform="scale(1.3114839 1.2926943)"/>
  <path d="M102.37205 13.153719c-.0648-.005-.13588.0644-.21291.202055-.8497 1.518335-3.993694 10.782215-4.720643 13.909745-1.570947 6.758678-2.398671 13.948285-2.544031 22.094776-.0766 4.291997-.000735 7.803658.168465 7.803658.169239 0 .520058-.972793.779798-2.162142h.000516c.553639-2.535139 4.321665-12.743033 6.004285-16.265674l1.16737-2.444295-.0129-9.966317c-.0125-9.456694-.17631-13.137146-.62993-13.171806z" style="fill:#008655;fill-opacity:1;stroke-width:.0537104" transform="scale(1.3114839 1.2926943)"/>
  <path d="M137.72338 8.7147135c-.29132-.020171-.81302.304418-1.572.7704956-10.86977 6.6749629-23.15617 21.5459369-28.87782 34.9523889-2.88503 6.759926-5.61115 15.868642-7.05694 23.580472-1.188906 6.341654-.659746 5.676101 4.7439-5.96501 6.42081-13.832386 18.75807-35.17009 22.02501-38.093282 1.84138-1.647635-.17296 3.134385-7.54011 17.901233-4.25064 8.520057-7.99749 16.167972-8.32662 16.995345l-.59841 1.504301 1.29552-1.504301c5.24244-6.086776 10.33523-12.977427 13.06484-17.675924 5.51567-9.494164 9.74018-18.742134 11.49491-25.164872 1.51459-5.54375 1.98861-7.256471 1.34772-7.3008465z" style="fill:#008655;fill-opacity:1;stroke-width:.0537104" transform="scale(1.3114839 1.2926943)"/>
  <path d="m32.61558 83.32463.235645 3.173449c.505714 6.811328 2.608856 17.181901 5.585705 28.185881 3.537878-2.16084 3.351253-1.96644 5.912818-4.5403-.382199-1.10604-.821517-2.34465-1.227832-3.45508-.818462-2.23681-1.395292-4.15993-1.282093-4.27313.02542-.0254.05721-.0337.08837-.0434-.868247-1.98164-1.847006-4.164547-2.80293-6.57738-2.384004-6.017435-4.486403-10.007048-6.50968-12.47004z" style="fill:#b0ffd9;fill-opacity:1;stroke-width:.0537104" transform="scale(1.3114839 1.2926943)"/>
  <path d="M17.676957 132.60948c-.526001-.0313-.460643 2.24841-.301273 8.19226.274413 10.2345 1.602891 18.96491 4.579565 30.10152 1.055527 3.94904 3.992792 12.66628 4.823478 14.31541.241702.47984.975276 2.24245 1.756999 4.1739.969736-9.72736-5.830194-44.22266-10.712525-56.72367-.05266-.0343-.102176-.0568-.146244-.0594z" style="fill:#b0ffd9;fill-opacity:1;stroke-width:.0537104" transform="scale(1.3114839 1.2926943)"/>
  <path d="M148.96093 75.967973c-1.73633 0-12.49692 5.030782-19.48666 9.110038-2.57909 1.505179-5.39968 3.146273-6.26784 3.647323-3.60615 2.081298-14.91511 10.203658-18.64382 13.390396-5.973826 5.10554-11.955482 11.19741-14.950509 15.22594-2.417197 3.25131-3.899503 5.608-3.899503 6.19963 0 .0697.105536.044.257348-.0238.442016-.27903.973308-.63333 1.563212-1.03767 1.359206-1.01246 3.355412-2.63841 5.650301-4.63021 2.350878-2.04037 4.908495-4.21741 5.683374-4.83794.77489-.62054 3.928307-3.16443 7.007837-5.65289 8.63854-6.98045 14.56581-11.443949 19.65824-14.803746 3.06035-2.019111 4.71392-2.971879 4.95318-2.771407 8.92602-6.869899 16.26576-12.419632 18.54771-13.722677-.004-.05773-.0258-.09302-.0729-.09302z" style="fill:#b0ffd9;fill-opacity:1;stroke-width:.0537104" transform="scale(1.3114839 1.2926943)"/>
  <path d="M136.109 123.08448c-.2262-.0836-1.05085.20998-2.63446.82114-.72395.27938-2.33185.88916-3.57291 1.35547-2.86811 1.07764-12.9872 5.61369-16.92351 7.5861-13.921414 6.97575-30.177005 18.6996-39.206396 28.27683-1.499618 1.59059-2.726448 2.96632-2.726448 3.05717 0 .0478.02173.081.05168.10749 12.844038-7.5151 52.664564-33.91525 65.068374-41.06313.0178-.0718.002-.11968-.0563-.14107z" style="fill:#b0ffd9;fill-opacity:1;stroke-width:.0537104" transform="scale(1.3114839 1.2926943)"/>
  <path d="M122.06955 174.50046c-1.6309 0-12.65424 1.46924-15.86105 2.11408-16.671794 3.35246-35.35412 10.35366-51.757043 19.39572-3.877166 2.13728-9.699014 5.96552-9.719304 6.39082-.0175.36617 2.211233.0131 6.569108-1.04024 4.012566-.96984 11.100493-3.60035 24.44502-9.07232 4.550545-1.86597 10.304699-4.16929 12.786816-5.11855 2.482108-.94926 6.774192-2.58995 9.537919-3.64577 2.745014-1.04869 5.057904-1.83675 5.172814-1.76372 8.70145-3.43272 15.97818-6.17468 19.71611-7.26002z" style="fill:#b0ffd9;fill-opacity:1;stroke-width:.0537104" transform="scale(1.3114839 1.2926943)"/>
  <path d="M147.94808 38.588859c-.18916-.0049-.58865.151266-1.1989.466121-9.01624 4.651879-14.80348 8.723537-20.65042 14.528829-2.71224 2.692935-5.64799 5.827312-6.52363 6.96495-1.09747 1.42584-2.61645 3.13861-5.76554 6.457487 10.03637-8.349102 26.67973-21.993583 34.25631-28.351241-.015-.04074-.052-.06445-.11782-.06615z" style="fill:#b0ffd9;fill-opacity:1;stroke-width:.0537104" transform="scale(1.3114839 1.2926943)"/>
  <path d="M137.72338 8.7147135c-.29132-.020171-.81302.304418-1.572.7704956-10.86977 6.6749629-23.15617 21.5459369-28.87782 34.9523889-2.88503 6.759926-5.61115 15.868642-7.05694 23.580472-1.188906 6.341654-.659746 5.676101 4.7439-5.96501 6.42081-13.832386 18.75807-35.17009 22.02501-38.093282.30966-.277079.50723-.367552.5917-.264067 3.8187-6.270083 7.39253-11.627703 10.2619-14.9375893-.0344-.020988-.07-.040238-.11575-.043408z" style="fill:#b0ffd9;fill-opacity:1;stroke-width:.0537104" transform="scale(1.3114839 1.2926943)"/>
  <path d="M102.37205 13.153719c-.0648-.005-.13588.0644-.21291.202055-.8497 1.518335-3.993694 10.782215-4.720643 13.909745-1.570947 6.758678-2.398671 13.948285-2.544031 22.094776-.0766 4.291997-.000735 7.803658.168465 7.803658.05506 0 .132398-.130655.216525-.310576 1.884046-12.076537 5.841904-35.55281 7.114814-43.684155-.008-.0028-.0144-.01491-.0222-.0155z" style="fill:#b0ffd9;fill-opacity:1;stroke-width:.0537104" transform="scale(1.3114839 1.2926943)"/>
  <path d="m65.465771 41.974699-.219108 1.295528c-.120509.712402-.400671 2.395342-.622701 3.739823-.647519 3.921008-.869833 16.592335-.389123 22.199679 1.003729 11.708228 4.044683 26.74123 7.33857 36.280471 1.03643 3.00153 2.276444 6.39958 3.391008 9.33948-.716683-11.25791-3.844053-31.839493-3.876766-34.222197-.033127-2.412939-2.799801-25.845577-5.444629-38.301021Z" style="fill:#b0ffd9;fill-opacity:1;stroke-width:.0537104" transform="scale(1.3114839 1.2926943)"/>
  <path d="M5.1520848 231.50038c-.82146-.70684-1.15641-1.25249-1.28911-2.45088-.13779-3.17668 3.14001-4.28544 5.7411-6.03465 5.5783302-3.75139 10.9066602-7.82244 12.6358202-9.65427l1.02496-1.08583-2.6027-1.9849c-3.57547-2.72676-9.85468-9.36847-12.7879802-13.5262-1.33895-1.89787-3.61186-5.50931-5.0509-8.02542-2.07541003-3.62879-2.64874003-4.9711-2.77267003-6.49154-.13667-1.67669-.0363-2.02878.80101-2.81069 1.22704003-1.14581 3.60115003-1.27951 4.72121003-.26587.42921.38843 1.7125 2.46738 2.85175 4.61987 3.1709202 5.99111 6.6320602 10.80255 11.3401002 15.76424 2.06163 2.17271 7.56666 6.91314 8.02818 6.91314.16647 0-.70642-2.0466-1.93977-4.548-6.09737-12.3664-12.03432-30.2843-14.19398-42.83796-1.35495-7.87606-1.6645202-11.39552-1.6704802-18.99199-.009-11.80561.9432702-16.34011 3.7080802-17.65209 2.09924-.99616 3.85637-.34478 6.86605 2.54526 5.84113 5.60895 11.57046 15.54137 15.37162 26.64837 1.8341 5.35925 2.75343 9.05657 3.76955 15.16007.96772 5.81281.99035 22.49457.0372 27.42916-.35696 1.84806-.59259 3.41654-.52361 3.48551.15766.15767 5.69426-6.95765 7.37518-9.47816.68972-1.03422 2.58247-3.86352 4.20612-6.28733 1.62365-2.42382 3.131205-4.80006 3.350128-5.28055.342919-.75262-.08897-1.86104-3.118528-8.00367-9.75399-19.77682-16.58937-38.49287-21.5471-58.99842-3.53949-14.639598-5.24011-29.419888-3.92846-34.142612.84865-3.05563 3.63592-3.73783 7.13044-1.74522 4.25292 2.42506 13.16065 12.543514 18.96909 21.547344 9.005159 13.959148 15.147464 30.656058 17.162183 46.652738.416819 3.30949.796709 6.15641.844219 6.32647.0475.17007 1.238059-3.10095 2.645677-7.26894l2.559315-7.57815-2.134905-4.73909C65.2932 112.20003 59.976911 94.098142 57.68297 77.472278c-.810175-5.87191-1.159037-22.91302-.588382-28.740958.723481-7.388749 2.602313-14.661086 4.400004-17.030967 1.168167-1.539987 3.078421-1.970338 4.896848-1.103186 2.999607 1.430416 9.590588 14.743323 13.245864 26.75488 3.822837 12.562171 7.201753 31.430155 7.202993 40.221655.0002 1.40558.1324 2.10482.35552 1.8804.43441-.43694 5.664815-18.19045 5.655135-19.19517-.004-.39502-.5875-2.536904-1.297109-4.759744-3.182677-9.96974-4.180146-17.407559-3.844546-28.667526.287749-9.654531 1.413898-16.965552 3.982166-25.852486C94.3189 11.887518 99.201106 2.327451 101.93995.911134c5.19609-2.687003 8.31394 3.937976 8.37636 17.798563.0161 3.567918.0476 6.487231.07 6.487362.0224.000128.63512-.888253 1.36157-1.974181 2.2753-3.401229 8.38054-10.24833 11.8329-13.270749C130.2692 4.096681 137.53437 0 141.23018 0c1.96265 0 3.74088 1.87622 4.12051 4.347578.8574 5.581558-3.95932 21.786712-9.10362 30.627769-.66195 1.137639-1.14326 2.129205-1.06958 2.20348.0737.07428.6091-.199423 1.18983-.608217 2.37835-1.674206 9.17296-5.011456 12.39371-6.087301 5.14964-1.720171 7.96905-1.499307 9.28434.727299 1.2231 2.070544.59035 4.259008-2.65197 9.172206-7.0529 10.687495-18.04786 22.187254-28.12433 29.415544-8.06419 5.78479-16.38443 10.516264-23.82283 13.547334-2.39173.9746-4.113464 1.9012-4.271134 2.29862-.14528.36621-1.190069 3.79668-2.321758 7.62329-1.131689 3.8266-2.186618 7.295928-2.344288 7.709618-.16217.42549.764529-.21754 2.133718-1.480568 3.463432-3.1949 10.850512-9.02607 15.019022-11.85564 15.01562-10.192564 35.25325-19.973634 43.27812-20.916794 3.52376-.41415 5.67933 1.47219 5.08626 4.45099-.483 2.42592-7.35259 12.778024-12.41428 18.707684-2.97474 3.48483-14.76446 14.886508-18.26223 17.661158-4.57039 3.62551-13.9248 9.84345-19.48274 12.95031-5.53606 3.09462-11.645743 5.94812-19.801206 9.24806-6.817333 2.75849-7.136493 2.93405-7.578772 4.16888-.25396.70901-1.299279 3.66039-2.322948 6.55863-1.023659 2.89824-2.166408 5.85986-2.539438 6.58139-.790299 1.52864-.894419 1.58781 3.010757-1.71103 7.973683-6.73564 16.364215-12.1541 28.588737-18.46212 12.96516-6.69021 24.22279-11.07939 31.74773-12.37798 4.10142-.7078 5.31017-.5148 6.63474 1.05936 1.95587 2.32442.91266 4.35039-7.0123 13.6184-11.9767 14.00637-33.90326 28.84915-55.463861 37.54523-5.828914 2.35099-14.347783 5.24583-18.573859 6.31168-1.781488.4493-2.168269.72194-3.008628 2.12077-.53038.88286-2.487448 3.94255-4.349037 6.79932l-3.384708 5.19413 4.366209-2.16335c22.224826-11.01185 49.351534-18.10929 67.184244-17.57808 4.914.14638 6.01345.54981 7.20184 2.64266.93871 1.65314.26259 2.88652-3.64588 6.6509-15.18984 14.62983-40.500786 26.39155-66.456574 30.88165-5.030681.87026-16.747211 2.08974-23.786971 2.47579-2.53383.13895-4.60697.38716-4.60697.55159 0 .55735 6.43251 2.63017 11.03128 3.55473 5.25609 1.05671 12.634148 1.761 17.092538 1.63161 2.603896-.0756 3.228836.029 4.111765.68824 2.364928 1.76567 1.863278 5.26409-.884879 6.17107-1.862111.61455-13.332025.25467-17.999914-.56477-5.38947-.94611-10.96478-2.41535-15.2992-4.03172l-4.01685-1.49795-3.50473 2.91915c-4.33097 3.60735-9.27 7.26212-13.47081 9.96812-2.88094 1.60637-6.0442302 3.63383-7.9771502 2.05166zm46.1491302-30.13945c4.012568-.96984 11.100561-3.60043 24.445103-9.0724 4.550556-1.86597 10.30456-4.16934 12.786678-5.1186 2.482117-.94926 6.774173-2.58979 9.537901-3.64561 2.763703-1.05583 5.094803-1.84982 5.180203-1.76443.16065.16064-5.423003 3.35358-11.333397 6.48084-1.861589.98499-3.553947 1.91196-3.760787 2.05993-1.427848 1.02149-13.139207 6.6287-16.359421 7.83263-4.327096 1.61775.623049.61783 9.025888-1.82322 9.634021-2.79871 17.959323-6.32422 27.181317-11.51045 3.80118-2.1377 12.04024-7.62082 13.76818-9.16278l1.27322-1.13618h-.97678c-1.6309 0-12.65383 1.4693-15.86064 2.11414-16.671805 3.35246-35.354364 10.35363-51.757297 19.3957-3.877168 2.13728-9.698918 5.96508-9.719218 6.39038-.0175.36617 2.21117.0134 6.56905-1.03995zm-18.20988-13.50946c.78734-8.16274.003-18.90676-1.95022-26.70161-.76456-3.05174-1.62054-5.80378-2.60366-8.64982-.39555-1.14507-.83035-2.2783-1.32381-3.38471-1.34333-3.01195-2.83339-5.96187-4.44742-8.83786-1.32799-2.2172-2.64499-4.23479-3.95849-6.32019-1.69652-2.6947-1.66363-1.80129-1.43182 6.84432.27442 10.23451 1.60259 18.96519 4.57925 30.10181 1.05553 3.94904 3.99269 12.66637 4.82338 14.3155.31256.62053 1.40528 3.24368 2.42826 5.82923 1.02298 2.58554 1.99703 5.03946 2.16457 5.45314.41118 1.01532 1.1424-2.66206 1.71996-8.64981zm29.208719-31.24394c.286492-9.45634-.451558-15.68817-3.093811-26.12301-2.784904-10.99818-7.549538-21.97162-13.220208-30.4475-2.87288-4.294058-3.5857-5.319898-4.08384-5.877158-.20846-.23321-.63288-.79977-.94314-1.25901-1.28919-1.90823-4.37137-5.59792-6.29094-7.53091l-2.05407-2.06844.23734 3.19668c.81949 11.03738 5.82546 31.414118 11.96472 48.702228 2.59293 7.30168 6.14214 15.9584 8.943026 21.81258l1.439457 3.00863.02572-1.73572c.02742-1.84908-1.046525-10.26554-2.049023-16.05839-.90661-5.23868-2.96688-13.36814-5.25974-20.75399-1.12372-3.61976-2.32712-7.51218-2.67422-8.64981-.34711-1.13764-1.30075-3.89856-2.11922-6.13536-.81846-2.23681-1.3955-4.15954-1.2823-4.27274 1.13241-1.13241 8.06155 13.52259 11.678182 24.6991 2.555466 7.89719 2.81065 8.79158 4.506604 15.79532 1.884214 7.78118 2.721346 12.69305 3.104292 18.21443.381513 5.50075.931983 3.3777 1.171165-4.51693zm9.704291 7.41292c.196499-.17935 1.626538-.76091 3.177864-1.29238 9.5397-3.26817 19.467511-7.65372 26.137451-11.54606 1.86159-1.08636 3.97703-2.31164 4.70098-2.72286 1.85765-1.05518 11.66532-7.74127 12.586-8.58014.42064-.38326 1.86483-1.59197 3.2093-2.68604 3.98344-3.24151 9.88062-8.84284 13.33648-12.66743 1.6208-1.79374 1.48919-1.84237-1.67804-.62006-.72395.27939-2.33168.88951-3.57274 1.35582-2.86811 1.07764-12.98723 5.61351-16.92355 7.58592-13.921424 6.97576-30.176779 18.69972-39.206177 28.27695-1.499619 1.5906-2.726568 2.96633-2.726568 3.05718 0 .28033.58267.18256.959-.1609zm21.179046-46.17068c2.350878-2.04038 4.908316-4.21749 5.683195-4.83802.774889-.62054 3.928494-3.16425 7.008034-5.65271 8.63854-6.98046 14.56606-11.444238 19.65849-14.804038 6.80992-4.49294 6.67628-3.72519-.5826 3.34682-2.65481 2.58647-5.83114 5.548088-7.05853 6.581388-1.22738 1.03329-2.4341 2.08908-3.65259 3.13193-2.00411 1.71523-4.08916 3.55997-6.01705 5.14013-2.28308 1.86159-3.51475 2.97897-5.31255 4.41893-.58417.46789-1.78816 1.23848-1.77817 1.37101 0 .18525 1.88096-.66093 4.17991-1.88039 2.29896-1.21946 3.73499-1.87752 4.34319-2.21719 1.73353-.96814 2.99464-1.76512 4.83543-3.00864 5.0883-3.43735 10.58132-7.2788 14.64216-10.896168 5.73276-5.23816 7.36824-6.82412 9.35223-9.06908 1.20425-1.36267 2.55971-2.88579 3.01213-3.38472 1.30227-1.43614 6.41548-7.946864 7.13636-9.086844.3597-.56882.50736-1.03422.32813-1.03422-1.73634 0-12.49735 5.030554-19.4871 9.109814-2.57909 1.50518-5.39955 3.14663-6.26771 3.64768-3.60616 2.0813-14.91502 10.20352-18.64373 13.390258-5.973824 5.10554-11.955738 11.19765-14.950775 15.22619-2.417198 3.25131-3.899437 5.60782-3.899437 6.19945 0 .44493 3.277487-2.05194 7.470983-5.69158zm-13.223867-7.34432c.20797-7.45529-.17254-14.531498-1.230259-22.879038-.637079-5.02779-2.542657-15.577834-3.359457-18.599244-.310029-1.1468-.822276-3.05821-1.138336-4.24756-1.462398-5.503044-5.747224-17.15507-7.547622-20.524768l-1.218207-2.280039-.219103 1.29528c-.120507.712403-.400765 2.395311-.622797 3.739794-.647522 3.921011-.869367 16.592753-.388655 22.200103 1.003731 11.708244 4.04432 26.740944 7.338217 36.280192 1.955298 5.6626 4.681252 12.8902 5.794701 15.36407l.990779 2.20131.69722-2.57739c.518499-1.91671.750099-4.47306.903519-9.97271zm30.275456-38.352142c1.09502-.65016 3.59869-2.11108 5.56371-3.24651 6.19985-3.58241 14.7186-11.087534 21.34627-17.45631 2.75508-2.647461 5.90558-6.351132 7.60411-8.577482.69693-.930796 1.77607-2.239837 2.3981-2.908979 1.35621-1.458931 1.22938-1.748636-.39796-.909021-9.01625 4.651883-14.80373 8.723732-20.65067 14.52903-2.71225 2.692937-5.64779 5.827044-6.52343 6.964683-1.46967 1.909398-3.68337 4.322149-9.57526 10.436199-1.24579 1.29277-2.15049 2.35049-2.01044 2.35049.14006 0 1.15058-.53194 2.24561-1.1821zm-5.27433-10.100273c6.42082-13.8324 18.75775-35.169889 22.02469-38.093084 1.84138-1.647636-.17272 3.134201-7.53988 17.901064-4.25065 8.520066-7.99775 16.167974-8.32688 16.995348l-.59843 1.504316 1.29564-1.504316c5.24244-6.086782 10.33556-12.977211 13.06517-17.675713 5.51568-9.494174 9.7399-18.742164 11.49463-25.164909 2.20305-8.063645 2.20448-8.02181-.22427-6.53036-10.86978 6.67497-23.15635 21.546006-28.87801 34.952471-2.88503 6.759933-5.61075 15.868138-7.05654 23.579976-1.188904 6.34166-.659765 5.67633 4.74388-5.964793zm-9.117641-7.051482c.553639-2.535141 4.321811-12.742771 6.004431-16.265416l1.16764-2.444514-.0132-9.966093c-.0143-10.807661-.22628-14.071071-.84256-12.969841-.8497 1.518337-3.993633 10.782505-4.720583 13.910038-1.570948 6.758685-2.398807 13.948142-2.544167 22.094641-.0766 4.292002-.00075 7.80364.16845 7.80364.169239 0 .520209-.973105.779949-2.162455z" style="fill:#000;stroke-width:.376079" transform="scale(1.3114839 1.2926943)"/>
</svg>